# Blender v2.69 (sub 0) OBJ File: ''
# www.blender.org
o Cube_Cube.001
v -0.456611 -0.799428 0.096609
v -0.456611 -0.799428 -1.903391
v 1.543389 -0.799428 -1.903391
v 1.543389 -0.799428 0.096609
v -0.456611 1.200572 0.096609
v -0.456611 1.200572 -1.903391
v 1.543389 1.200572 -1.903391
v 1.543389 1.200572 0.096609
v -0.456611 0.200572 0.096609
v -0.456611 0.200572 -1.903391
v 1.543389 0.200572 -1.903391
v 1.543389 0.200572 0.096609
v 0.543389 1.200572 -1.903391
v 0.543389 -0.799428 -1.903391
v 0.543389 1.200572 0.096609
v 0.543389 -0.799428 0.096609
v -0.128142 0.200572 -0.948834
v 0.043389 -0.799428 -1.903391
v 0.043389 1.200572 0.096609
v 0.043389 0.200572 -1.903391
v 0.043389 1.200572 -1.903391
v 0.043389 -0.799428 0.096609
v 0.043389 0.200572 0.096609
v 1.043389 1.200572 -1.903391
v 1.043389 -0.799428 0.096609
v 1.043389 0.200572 0.096609
v 1.043389 -0.799428 -1.903391
v 1.043389 1.200572 0.096609
v 1.043389 0.200572 -1.903391
v -0.186914 1.200572 -0.948834
v -0.456611 -0.799428 -0.948834
v 1.363551 1.200572 -0.948834
v 1.543389 -0.799428 -0.948834
v 0.543389 0.200572 -0.174348
v 0.543389 0.200572 -1.539993
v 0.543389 -0.799428 -0.948834
v 0.543389 1.200572 -0.948834
v 0.043389 1.200572 -0.948834
v 0.043389 -0.799428 -0.948834
v 1.043389 -0.799428 -0.948834
v 1.043389 1.200572 -0.948834
v -0.456611 -0.299428 -1.903391
v 1.543389 -0.299428 -1.903391
v 1.543389 -0.299428 0.096609
v -0.456611 -0.299428 0.096609
v 0.543389 -0.299428 -1.903391
v 0.543389 -0.299428 0.096609
v 0.043389 -0.299428 0.096609
v 0.043389 -0.299428 -1.903391
v 1.043389 -0.299428 -1.903391
v 1.043389 -0.299428 0.096609
v -0.456611 -0.299428 -0.948834
v 1.543389 -0.299428 -0.948834
v -0.186914 1.200572 -1.436613
v 1.543389 -0.799428 -1.436613
v 1.543389 0.200572 -1.436613
v -0.456611 -0.799428 -1.436613
v 1.363551 1.200572 -1.436613
v -0.456611 0.200572 -1.436613
v 0.543389 -0.799428 -1.436613
v 0.543389 1.200572 -1.436613
v 0.043389 1.200572 -1.436613
v 0.043389 -0.799428 -1.436613
v 1.043389 -0.799428 -1.436613
v 1.043389 1.200572 -1.436613
v -0.456611 -0.299428 -1.436613
v 1.543389 -0.299428 -1.436613
v -0.456611 -0.799428 -0.426113
v 1.363551 1.200572 -0.426113
v -0.456611 0.200572 -0.426113
v 0.543389 -0.799428 -0.426113
v 0.543389 1.200572 -0.426113
v 0.043389 1.200572 -0.426113
v 0.043389 -0.799428 -0.426113
v 1.043389 -0.799428 -0.426113
v 1.043389 1.200572 -0.426113
v -0.186914 1.200572 -0.426113
v 1.543389 -0.799428 -0.426113
v 1.543389 0.200572 -0.426113
v 1.543389 -0.299428 -0.426113
v -0.456611 -0.299428 -0.426113
v -0.456611 0.700572 0.096609
v -0.456611 0.700572 -1.903391
v 1.543389 0.700572 -1.903391
v 1.543389 0.700572 0.096609
v 0.543389 0.700572 -1.903391
v 0.543389 0.700572 0.096609
v 0.043389 0.700572 0.096609
v 0.043389 0.700572 -1.903391
v 1.043389 0.700572 -1.903391
v 1.043389 0.700572 0.096609
v -0.456611 0.700572 -0.948834
v 1.543389 0.700572 -0.948834
v -0.456611 0.700572 -1.436613
v 1.543389 0.700572 -1.436613
v 1.543389 0.700572 -0.426113
v -0.456611 0.700572 -0.426113
v -0.665439 -0.799428 -1.314669
v -0.688642 -0.799428 -0.943011
v 1.879496 -0.799428 -0.426113
v 1.879496 -0.799428 -1.436613
v 1.879496 -0.799428 -0.948834
v -0.665439 -0.799428 -0.556793
v 1.144988 0.200572 -0.948834
v 1.144988 -0.299428 -0.948834
v 1.144988 0.200572 -1.436613
v 1.144988 -0.299428 -1.436613
v 1.144988 0.200572 -0.426113
v 1.144988 -0.299428 -0.426113
v 1.144988 0.700572 -0.948834
v 1.144988 0.700572 -1.436613
v 1.144988 0.700572 -0.426113
v 0.043389 0.200572 -1.539993
v 1.043389 0.200572 -1.539993
v 0.543389 -0.299428 -1.539993
v 0.043389 -0.299428 -1.539993
v 1.043389 -0.299428 -1.539993
v 0.543389 0.700572 -1.539993
v 0.043389 0.700572 -1.539993
v 1.043389 0.700572 -1.539993
v -0.128142 -0.299428 -0.948834
v -0.128142 0.200572 -1.436613
v -0.128142 -0.299428 -1.436613
v -0.128142 0.200572 -0.426113
v -0.128142 -0.299428 -0.426113
v -0.128142 0.700572 -0.948834
v -0.128142 0.700572 -1.436613
v -0.128142 0.700572 -0.426113
v 0.043389 0.200572 -0.174348
v 1.043389 0.200572 -0.174348
v 0.543389 -0.299428 -0.174348
v 0.043389 -0.299428 -0.174348
v 1.043389 -0.299428 -0.174348
v 0.543389 0.700572 -0.174348
v 0.043389 0.700572 -0.174348
v 1.043389 0.700572 -0.174348

vt 0.056200 0.549000
vt 0.454300 0.549000
vt 0.454300 0.947100
vt 0.056200 0.947100
vt 0.947600 0.452400
vt 0.947600 0.058200
vt 0.553400 0.058200
vt 0.553400 0.550900
vt 0.947700 0.550900
vt 0.947700 0.945200
vt 0.058100 0.452400
vt 0.058100 0.058200
vt 0.452300 0.058200
vt 0.553400 0.945200
vt 0.013000 0.505800
vt 0.497500 0.505800
vt 0.456300 0.547000
vt 0.497500 0.990300
vt 0.456300 0.949100
vt 0.013000 0.990300
vt 0.054200 0.949100
vt 0.054200 0.547000
vt 0.992800 0.497600
vt 0.992800 0.013100
vt 0.951600 0.456400
vt 0.508300 0.013100
vt 0.549400 0.054200
vt 0.508300 0.497600
vt 0.508300 0.505800
vt 0.992800 0.505800
vt 0.951600 0.547000
vt 0.992800 0.990300
vt 0.951600 0.949100
vt 0.508300 0.990300
vt 0.549500 0.949100
vt 0.549500 0.547000
vt 0.012900 0.497600
vt 0.012900 0.013100
vt 0.054100 0.456400
vt 0.497400 0.013100
vt 0.456300 0.054200
vt 0.497400 0.497600
vt 0.489900 0.528500
vt 0.014400 0.528500
vt 0.014400 0.510300
vt 0.489900 0.510300
vt 0.489900 0.528600
vt 0.014400 0.528600
vt 0.014400 0.510400
vt 0.489900 0.510400
vt 0.553400 0.452400
vt 0.452300 0.452400
vt 0.951600 0.054200
vt 0.549400 0.456400
vt 0.054100 0.054200
vt 0.456300 0.456400

vn -1.000000 0.000000 0.000000
vn 0.000000 0.000000 -1.000000
vn 1.000000 0.000000 0.000000
vn 0.000000 0.000000 1.000000
vn 0.000000 -1.000000 0.000000
vn 0.000000 1.000000 0.000000
vn -0.865863 0.000000 0.500282
vn 0.945602 0.000000 -0.325326
vn -0.880128 0.474736 0.000000
vn 0.940985 0.338449 0.000000
vn 0.933139 0.000000 0.359515
vn -0.888686 0.000000 -0.458516
s off
f 66//1 42//1 57//1
f 50//2 43//2 27//2
f 80//3 44//3 78//3
f 48//4 45//4 22//4
f 64//5 27//5 55//5
f 62//6 21//6 6//6
f 94//1 83//1 59//1
f 90//2 84//2 29//2
f 96//3 85//3 79//3
f 88//4 82//4 23//4
f 49//2 46//2 18//2
f 51//4 47//4 25//4
f 63//5 18//5 60//5
f 65//6 24//6 61//6
f 46//6 49//6 115//6
f 47//6 51//6 131//6
f 47//4 48//4 16//4
f 61//6 13//6 62//6
f 48//6 47//6 132//6
f 42//2 49//2 2//2
f 57//5 2//5 63//5
f 83//2 89//2 10//2
f 46//2 50//2 14//2
f 60//5 14//5 64//5
f 50//6 46//6 117//6
f 44//4 51//4 4//4
f 58//6 7//6 65//6
f 85//4 91//4 12//4
f 81//1 52//1 68//1
f 67//3 53//3 55//3
f 75//5 40//5 78//5
f 73//6 38//6 77//6
f 70//2 97//2 124//2
f 96//2 79//2 112//2
f 74//5 39//5 71//5
f 76//6 41//6 72//6
f 72//6 37//6 73//6
f 68//5 31//5 74//5
f 71//5 36//5 75//5
f 69//6 32//6 76//6
f 59//1 10//1 66//1
f 29//2 11//2 50//2
f 79//3 12//3 80//3
f 23//4 9//4 48//4
f 89//5 86//5 119//5
f 91//5 87//5 136//5
f 87//5 88//5 134//5
f 10//2 20//2 42//2
f 86//5 90//5 118//5
f 12//4 26//4 44//4
f 81//2 70//2 125//2
f 79//2 80//2 108//2
f 52//1 66//1 31//1
f 40//5 64//5 33//5
f 38//6 62//6 30//6
f 97//5 92//5 128//5
f 39//5 63//5 36//5
f 41//6 65//6 37//6
f 37//6 61//6 38//6
f 31//5 57//5 39//5
f 36//5 60//5 40//5
f 32//6 58//6 41//6
f 43//3 67//3 3//3
f 84//3 95//3 11//3
f 92//5 94//5 126//5
f 11//3 56//3 43//3
f 53//3 80//3 33//3
f 95//5 93//5 111//5
f 45//1 81//1 1//1
f 25//5 75//5 4//5
f 19//6 73//6 5//6
f 82//1 97//1 9//1
f 22//5 74//5 16//5
f 28//6 76//6 15//6
f 15//6 72//6 19//6
f 1//5 68//5 22//5
f 16//5 71//5 25//5
f 8//6 69//6 76//6
f 93//5 96//5 110//5
f 9//1 70//1 45//1
f 54//7 6//7 83//7
f 24//2 7//2 90//2
f 69//8 8//8 85//8
f 19//4 5//4 88//4
f 21//2 13//2 89//2
f 28//4 15//4 91//4
f 15//4 19//4 87//4
f 6//2 21//2 83//2
f 13//2 24//2 86//2
f 8//4 28//4 85//4
f 77//9 30//9 97//9
f 58//10 32//10 95//10
f 30//9 54//9 92//9
f 7//11 58//11 84//11
f 32//10 69//10 93//10
f 5//12 77//12 82//12
f 57//5 31//5 99//5
f 31//5 68//5 99//5
f 33//5 55//5 102//5
f 33//6 78//6 102//6
f 111//3 110//3 106//3
f 106//3 104//3 107//3
f 110//3 112//3 104//3
f 104//3 108//3 105//3
f 67//4 56//4 107//4
f 56//4 95//4 106//4
f 53//6 67//6 105//6
f 80//6 53//6 109//6
f 119//2 118//2 113//2
f 118//2 120//2 35//2
f 113//2 35//2 116//2
f 35//2 114//2 115//2
f 29//1 50//1 114//1
f 49//3 20//3 116//3
f 90//1 29//1 120//1
f 20//3 89//3 113//3
f 128//1 126//1 124//1
f 124//1 17//1 125//1
f 126//1 127//1 17//1
f 17//1 122//1 121//1
f 52//6 81//6 121//6
f 59//4 66//4 122//4
f 94//4 59//4 127//4
f 66//6 52//6 123//6
f 136//4 134//4 130//4
f 134//4 135//4 34//4
f 130//4 34//4 133//4
f 34//4 129//4 131//4
f 51//1 26//1 133//1
f 23//3 48//3 129//3
f 26//1 91//1 130//1
f 88//3 23//3 135//3
f 42//1 2//1 57//1
f 43//2 3//2 27//2
f 44//3 4//3 78//3
f 45//4 1//4 22//4
f 27//5 3//5 55//5
f 54//6 62//6 6//6
f 83//1 10//1 59//1
f 84//2 11//2 29//2
f 85//3 12//3 79//3
f 82//4 9//4 23//4
f 46//2 14//2 18//2
f 47//4 16//4 25//4
f 18//5 14//5 60//5
f 24//6 13//6 61//6
f 49//6 116//6 115//6
f 51//6 133//6 131//6
f 48//4 22//4 16//4
f 13//6 21//6 62//6
f 47//6 131//6 132//6
f 49//2 18//2 2//2
f 2//5 18//5 63//5
f 89//2 20//2 10//2
f 50//2 27//2 14//2
f 14//5 27//5 64//5
f 46//6 115//6 117//6
f 51//4 25//4 4//4
f 7//6 24//6 65//6
f 91//4 26//4 12//4
f 52//1 31//1 68//1
f 53//3 33//3 55//3
f 40//5 33//5 78//5
f 38//6 30//6 77//6
f 97//2 128//2 124//2
f 79//2 108//2 112//2
f 39//5 36//5 71//5
f 41//6 37//6 72//6
f 37//6 38//6 73//6
f 31//5 39//5 74//5
f 36//5 40//5 75//5
f 32//6 41//6 76//6
f 10//1 42//1 66//1
f 11//2 43//2 50//2
f 12//3 44//3 80//3
f 9//4 45//4 48//4
f 86//5 118//5 119//5
f 87//5 134//5 136//5
f 88//5 135//5 134//5
f 20//2 49//2 42//2
f 90//5 120//5 118//5
f 26//4 51//4 44//4
f 70//2 124//2 125//2
f 80//2 109//2 108//2
f 66//1 57//1 31//1
f 64//5 55//5 33//5
f 62//6 54//6 30//6
f 92//5 126//5 128//5
f 63//5 60//5 36//5
f 65//6 61//6 37//6
f 61//6 62//6 38//6
f 57//5 63//5 39//5
f 60//5 64//5 40//5
f 58//6 65//6 41//6
f 67//3 55//3 3//3
f 95//3 56//3 11//3
f 94//5 127//5 126//5
f 56//3 67//3 43//3
f 80//3 78//3 33//3
f 93//5 110//5 111//5
f 81//1 68//1 1//1
f 75//5 78//5 4//5
f 73//6 77//6 5//6
f 97//1 70//1 9//1
f 74//5 71//5 16//5
f 76//6 72//6 15//6
f 72//6 73//6 19//6
f 68//5 74//5 22//5
f 71//5 75//5 25//5
f 28//6 8//6 76//6
f 96//5 112//5 110//5
f 70//1 81//1 45//1
f 94//9 54//9 83//9
f 7//2 84//2 90//2
f 96//10 69//10 85//10
f 5//4 82//4 88//4
f 13//2 86//2 89//2
f 15//4 87//4 91//4
f 19//4 88//4 87//4
f 21//2 89//2 83//2
f 24//2 90//2 86//2
f 28//4 91//4 85//4
f 30//9 92//9 97//9
f 32//10 93//10 95//10
f 54//9 94//9 92//9
f 58//10 95//10 84//10
f 69//10 96//10 93//10
f 77//9 97//9 82//9
f 98//5 57//5 99//5
f 68//5 103//5 99//5
f 55//5 101//5 102//5
f 78//6 100//6 102//6
f 110//3 104//3 106//3
f 104//3 105//3 107//3
f 112//3 108//3 104//3
f 108//3 109//3 105//3
f 56//4 106//4 107//4
f 95//4 111//4 106//4
f 67//6 107//6 105//6
f 53//6 105//6 109//6
f 118//2 35//2 113//2
f 120//2 114//2 35//2
f 35//2 115//2 116//2
f 114//2 117//2 115//2
f 50//1 117//1 114//1
f 20//3 113//3 116//3
f 29//1 114//1 120//1
f 89//3 119//3 113//3
f 126//1 17//1 124//1
f 17//1 121//1 125//1
f 127//1 122//1 17//1
f 122//1 123//1 121//1
f 81//6 125//6 121//6
f 66//4 123//4 122//4
f 59//4 122//4 127//4
f 52//6 121//6 123//6
f 134//4 34//4 130//4
f 135//4 129//4 34//4
f 34//4 131//4 133//4
f 129//4 132//4 131//4
f 26//1 130//1 133//1
f 48//3 132//3 129//3
f 91//1 136//1 130//1
f 23//3 129//3 135//3
